<?xml version="1.0" ?><svg style="enable-background:new 0 0 48 48;" version="1.1" viewBox="0 0 48 48" xml:space="preserve" xmlns="http://www.w3.org/2000/svg" xmlns:xlink="http://www.w3.org/1999/xlink"><g id="Padding__x26__Artboard"/><g id="Icons"><path d="M24.22893,26.50924c-0.11475-0.11823-0.2594-0.19897-0.40894-0.26245   c-0.01013,0.17603-0.09515,1.35059-0.56311,1.25494c-0.46088-0.09418-0.46576-1.20776-0.46301-1.40448   c-0.04163-0.00104-0.0799-0.00177-0.12488-0.0033c-0.03876,0.3916-0.14459,0.8736-0.44019,0.93396   c-0.28253,0.05774-0.4231-0.35114-0.49451-0.72406c-0.05505,0.33636-0.16962,0.67432-0.41315,0.72406   c-0.28253,0.05774-0.4231-0.35107-0.49451-0.724c-0.05505,0.3363-0.16962,0.67426-0.41315,0.724   c-0.28253,0.05774-0.42316-0.35107-0.49457-0.72394c-0.05505,0.3363-0.16962,0.67419-0.41315,0.72394   c-0.36487,0.07458-0.49603-0.6272-0.54156-1.02527c-0.07025,0.00116-0.14557,0.01392-0.21832,0.01849   c0.00171,0.05402,0.03864,1.37946-0.45636,1.48059c-0.49683,0.10156-0.56268-1.23773-0.5647-1.28235   c-0.24927,0.10193-0.45392,0.24127-0.54718,0.44073c-0.01904,0.03467-0.42969,0.72998-0.05908,1.10254   c0.40137,0.40253,0.96204,0.59375,1.47852,0.54401c0.03156-0.40253,0.13281-0.95361,0.44952-1.01831   c0.31555-0.06451,0.4574,0.45496,0.51941,0.854c0.18671-0.01654,0.38257-0.02814,0.59161-0.02814   c0.59637,0,1.24451,0.0614,1.76233,0.14532c0.05676-0.40466,0.19482-0.97882,0.52679-0.91101   c0.32349,0.0661,0.42151,0.63751,0.45074,1.04181c0.47321,0.00519,0.98279-0.08929,1.29773-0.33472   c0.21484-0.16748,0.32324-0.38818,0.33105-0.67383C24.53654,27.01607,24.43645,26.72261,24.22893,26.50924z" style="fill:#303030;"/><path d="M33.63129,34.93649c-0.87061-0.91406-0.81201-2.38135-0.38916-3.35791   c0.48633-1.12305,0.46191-5.06201-0.03955-6.38525c-0.36475-0.96289-0.31055-2.35547-0.27051-3.37207   c0.01123-0.29346,0.02148-0.56055,0.02148-0.78564c0-0.14453,0.00391-0.35547,0.00781-0.61377   c0.05078-3.0249-0.01709-5.17773-0.51318-5.854c-0.59521-0.81104-1.27881-2.58594-1.23975-3.21875   c0.03442-0.55182-0.59375-1.30621-1.40967-2.12585c-0.50006-0.12421-1.33728-0.46722-1.33728-0.46722   c-1.66046-0.76593-2.62787-0.19922-2.66858-0.17548c-0.14014,0.08594-0.32568,0.04346-0.41211-0.09619   c-0.08691-0.13965-0.04639-0.32275,0.09229-0.41113c0.03955-0.02563,0.78619-0.47357,2.04376-0.24603   c0,0,0.72046,0.16333,1.32391,0.46088c-0.03662-0.03662-0.08398-0.08789-0.14258-0.15137   c-2.41943-2.61328-5.19434-3.40869-8.24463-2.36572c-0.74811-0.18744-5.50183-1.2337-7.2843,1.97186   c0.42169-0.09448,0.81281-0.15057,0.81281-0.15057c0.84698-0.06458,2.31458-0.01111,3.26788,0.97998   c0.11475,0.11963,0.11084,0.30957-0.0083,0.42432c-0.05811,0.05566-0.1333,0.0835-0.20801,0.0835   c-0.07861,0-0.15723-0.03076-0.21631-0.0918c-0.98737-1.02716-2.77429-0.82263-3.25049-0.74713l-0.88379,0.26117   c-0.34418,0.49847-0.79901,1.07495-1.17627,1.30237c-0.9458,0.56982-2.07959,3.82373-2.22803,5.46338   c-0.04736,0.52588-0.08545,1.05176-0.12109,1.54541c-0.07568,1.05273-0.14746,2.04688-0.27881,2.40869   c-0.24414,0.67383-0.21729,3.21094-0.01221,4.24268c0.06738,0.33789,0.11444,0.70612,0.1369,1.0686   C9.21686,23.74021,9.43628,23.22,9.43628,23.22c0.15356-0.37787,0.32153-0.74194,0.48212-1.06915   c0.21777-0.44336,0.51611-1.05127,0.4458-1.21387c-0.32666-0.75391,0.14258-1.99121,0.19678-2.12988   c0.06104-0.15479,0.23584-0.22998,0.38916-0.16943c0.15381,0.06055,0.22998,0.23486,0.16943,0.38916   c-0.1709,0.43506-0.37744,1.27393-0.20459,1.67188c0.18018,0.41699-0.0874,0.96191-0.45801,1.7168   c-0.32467,0.66086-0.6025,1.29665-0.8778,1.98477c-0.19261,0.48143-0.33968,0.88356-0.62611,1.46827   C8.79105,26.19928,8.6284,26.51932,8.4646,26.847c-0.3181,0.63638-0.55322,1.32172-0.65878,2.02639   c-0.12317,0.8222-0.05468,1.67467,0.28689,2.43908c0.4035,0.90271,0.58508,1.80426,0.62561,2.38104   c0.00098,0.01361-0.00177,0.02429-0.00098,0.03778c0.00275,0.0459-0.00427,0.08398-0.00336,0.12842   c0.34619-0.19214,0.58972-0.72662,0.58972-0.72662c0.35138-0.68585,0.72168-1.58606,0.61127-2.23663   c-0.22705-1.3418,0.33643-3.18457,0.78906-4.00781c0.07861-0.14502,0.26123-0.2002,0.40723-0.11816   c0.14502,0.07959,0.19824,0.26221,0.11816,0.40723c-0.35596,0.64795-0.93359,2.37402-0.72266,3.61816   c0.20312,1.19873-0.67249,3.02441-1.29626,3.38458c-0.2337,0.13501-0.48462,0.37134-0.69757,0.54529   c-0.21295,0.17389-0.38342,0.29761-0.62946,0.42194c-0.1908,0.09644-0.40295,0.18152-0.66089,0.2439   c-2.47607,0.59668-2.29248,1.98535-2.2832,2.04395c0.01367,0.09131,0.06885,0.1709,0.14941,0.21631   c0.08057,0.04443,0.17725,0.05078,0.26221,0.01514c0.63477-0.26465,2.42969-0.91895,3.12451-0.74854   c0.64941,0.1543,1.69873-0.11816,2.49854-0.64844c0.23187-0.15399,0.47809-0.37958,0.70557-0.64062   c-0.19855-0.83014,0.18591-1.69,0.28156-1.86084c0.12408-0.22162,0.40106-0.82996,0.55878-3.94287   c0.2002-3.93018,2.6709-5.6499,3.32129-5.89551c0.40869-0.15381,1.48291-1.04785,2.10547-1.61133   c0.02649-0.02405,0.22614-0.25873,0.33252-0.36279c0.40771-0.37988,0.79248-0.82373,0.8291-0.95557   c0.04132-0.16583,0.17975-0.43842,0.18066-0.44287c0.00427-0.02045,0.36713-1.80798-0.49152-3.53107   c-0.43274-0.1795-2.51703-0.98114-3.9162-0.39374c-0.15234,0.06201-0.32812-0.0083-0.39258-0.16113   c-0.06396-0.15283,0.0083-0.32861,0.16113-0.39258c1.17578-0.49164,2.68231-0.17322,3.61755,0.12   c-1.45044-1.79596-4.54382-1.61212-4.57458-1.60681c-0.15234,0.01953-0.30859-0.11328-0.31982-0.27881   c-0.01123-0.16504,0.11328-0.30859,0.27881-0.31982c0.14453-0.01025,3.56152-0.21924,5.17188,1.93408   c0.18555,0.24805,0.33673,0.50189,0.4718,0.76031c0.65778,1.26526,0.71027,2.53223,0.66174,3.29279   c0.27405-0.11328,0.59052-0.17517,0.98364-0.14099c0.15771,0.00623,0.37811,0.0506,0.60138,0.15088   c-0.04974-0.76355,0.00311-2.04633,0.67548-3.33691c0.00269-0.00519,0.01532-0.01489,0.02002-0.02106   c0.12659-0.23688,0.26447-0.47369,0.4375-0.70502c1.60986-2.15234,5.02979-1.94482,5.17188-1.93408   c0.16504,0.01123,0.29004,0.1543,0.27881,0.31982s-0.1499,0.29883-0.31982,0.27881   c-0.02875-0.00281-3.01764-0.17609-4.49481,1.51422c0.43872-0.12042,0.9743-0.18848,1.56366-0.0943   c0.16357,0.02686,0.2749,0.18066,0.24854,0.34424c-0.02686,0.16406-0.18506,0.271-0.34424,0.24854   c-1.05182-0.1701-1.88104,0.28345-2.06189,0.39252c-0.8775,1.73199-0.51172,3.53955-0.50745,3.56012   c0.00073,0.00342,0.14209,0.2713,0.18115,0.43701c0.11377,0.16553,0.37061,0.50195,0.58203,0.62988   c0.18701,0.1134,0.38098,0.35608,0.5177,0.64105c0.66382,0.83948,1.9021,2.21594,2.4032,2.34186   c0.92334,0.23193,2.33594,2.35303,2.41943,3.37646c0.01367,0.16504-0.10938,0.31006-0.29932,0.32422   c-0.1543,0-0.28564-0.11865-0.29834-0.27539c-0.06787-0.8291-1.35498-2.68945-1.96777-2.84326   c-0.59247-0.14862-1.53796-1.14752-2.16028-1.86871c-0.07568,0.21118-0.20715,0.39978-0.40662,0.55133   c-0.0542,0.0415-0.11816,0.06104-0.18164,0.06104c-0.09033,0-0.17969-0.04053-0.23877-0.11816   c-0.1001-0.13184-0.07471-0.32031,0.05713-0.42041c0.1748-0.13281,0.25439-0.29785,0.24365-0.50439   c-0.01807-0.34131-0.27295-0.67578-0.39893-0.75195c-0.3916-0.2373-0.76318-0.79736-0.8042-0.86035   c-0.021-0.03223-0.03564-0.06836-0.04297-0.10596c-0.13525-0.69385-0.87939-0.73193-0.91113-0.7334   c-1.0127-0.0874-1.14502,0.43066-1.21387,0.70752c-0.0918,0.37109-0.72754,0.99365-0.99658,1.24414   c-0.1665,0.1626-0.24854,0.32812-0.24609,0.50098c0.00391,0.28613,0.24268,0.51953,0.24512,0.52197   c0.12158,0.1123,0.12891,0.30225,0.0166,0.42383c-0.1123,0.12109-0.30225,0.12891-0.42383,0.0166   c-0.03613-0.03333-0.29327-0.29871-0.39148-0.69031c-0.53418,0.45911-1.3894,1.15826-1.84094,1.32849   c-0.53857,0.20312-2.75244,1.79541-2.93359,5.36426c-0.18652,3.67236-0.59967,4.05737-0.8009,4.69659   c-0.06812,0.30139-0.12653,0.7912-0.09979,1.32538c0.01593,0.0293,0.03552,0.0545,0.05225,0.08356   c0.10419,0.1803,0.21887,0.35742,0.35675,0.50824c0.40234,0.43945,0.86621,1.49756,0.7085,2.22266   c-0.07373,0.33887-0.27148,0.57227-0.60449,0.71289c-0.13818,0.05859-0.21191,0.21094-0.17188,0.35596   s0.17627,0.23779,0.33057,0.21777c0.71075-0.09918,1.85986-0.5014,2.42169-1.35339c0.01782-0.02704,0.04065-0.05005,0.05725-0.078   c-0.05457-0.56885-0.32751-1.04956-0.32751-1.04956c-0.16528-0.34595-0.80499-1.81464-0.1524-2.60889   c0.10645-0.12793,0.29639-0.14551,0.42236-0.0415c0.12793,0.10547,0.14648,0.29443,0.0415,0.42236   c-0.37305,0.4538,0.03796,1.56915,0.23737,1.98383c0,0,0.23792,0.60742,0.28125,1.31775   c0.18011,0.31982,0.32013,0.69281,0.29095,1.08807c-0.01562,0.21289-0.03809,0.41699-0.06006,0.6123   c-0.104,0.93652-0.20215,1.8208,0.68701,2.40137c-0.64819-1.32812-0.03326-3.08105-0.03326-3.08105   c0.19965-0.87256,0.57275-1.89508,1.27155-2.58301c1.18555-1.16699,0.65283-2.75244,0.62939-2.81934   c-0.0542-0.15625,0.02783-0.32715,0.18408-0.38184c0.15479-0.05615,0.32715,0.02637,0.38184,0.18262   c0.02881,0.08154,0.68701,2.00781-0.77441,3.44629c-0.64264,0.63251-0.97235,1.63739-1.14246,2.46368   c0,0-0.6463,1.29218-0.05774,2.46747c-0.00165-0.00952-0.08588-0.54187,0.02594-1.1084   c0.08923-0.45197,0.30035-0.92523,0.79828-1.17529l0.32666-0.16309c0.85303-0.42334,1.49902-0.74365,1.81592-1.27295   c0.6499,1.10938,1.71094,2.65869,2.49512,2.58936c0.08105-0.00879,0.15527-0.05029,0.20557-0.11523   c0.0498-0.06445,0.07129-0.14697,0.05957-0.22803c-0.00128-0.00757-0.07977-0.56793,0.08685-1.08472   c-0.15216-0.3653-0.26398-0.7619-0.26398-0.7619c-0.12799-0.44464-0.46558-1.86053,0.05554-2.99127   c0.06934-0.15088,0.24707-0.2168,0.39795-0.14697c0.15039,0.06934,0.20624,0.24329,0.14697,0.39795   c-0.58179,1.51776,0.30676,3.51154,0.53674,3.93555c0.64459,0.49426,1.51477,0.99609,2.41101,0.99609   c0.08887,0,0.17334-0.03906,0.22998-0.10742c0.05713-0.06836,0.08105-0.1582,0.06543-0.24561   c-0.13184-0.729-0.18359-1.9292,0.12256-2.18945c0.37488-0.3186,0.80225-1.03101,1.00055-1.76727   c-0.39764-0.4989-1.38141-3.37482-1.38141-4.45587c0-1.02002-0.12207-3.42627-0.12354-3.45068   c-0.0083-0.16553,0.11914-0.30615,0.28467-0.31494c0.14014,0.00195,0.30615,0.11914,0.31494,0.28467   c0.00488,0.09912-0.00726,2.45404,0.12354,3.48096c0.28204,2.21484,1.34717,4.09241,1.5849,4.41083   c0.55774,0.33661,1.24072,0.58942,1.97858,0.48859c1.53027-0.21143,3.12402,0.99023,3.2959,1.54395l-0.69806-1.49921   c-0.35132-0.65094-0.84918-1.40411-1.47089-1.88556c-1.33838-1.03662-1.76807-1.68506-1.76807-2.66895   c0-0.16553,0.13428-0.2998,0.2998-0.2998s0.2998,0.13428,0.2998,0.2998c0,0.68115,0.22998,1.18359,1.53564,2.19434   c0.81934,0.63428,1.42389,1.63971,1.80188,2.4021c0,0,0.34863,0.63251,0.58484,1.39868   C34.43988,38.7446,34.69818,36.05759,33.63129,34.93649z M11.39105,17.47849c-0.01318,0.15674-0.14453,0.27441-0.29834,0.27441   c-0.00879,0-0.01758,0-0.02588-0.00098c-0.16553-0.01416-0.2876-0.15918-0.27344-0.32422l0.125-1.45801   c0.01416-0.16553,0.17676-0.29248,0.32422-0.27344c0.16553,0.01416,0.2876,0.15918,0.27344,0.32422L11.39105,17.47849z    M15.20428,18.2283c0.08496-0.09393,0.17841-0.16534,0.27972-0.21857c0.15668-0.08234,0.33228-0.12122,0.52502-0.13275   c0.8429-0.05035,1.7038,0.2453,2.37958,0.74115c0.15039,0.11035,0.24951,0.27441,0.27783,0.46191   c0.02979,0.19482-0.021,0.39795-0.13916,0.55762c-0.44727,0.60596-0.98828,0.91943-1.55273,0.91943   c-0.26367,0-0.53271-0.06836-0.80029-0.20752c-0.09424-0.03711-1.14209-0.4873-1.25684-1.25439   C14.87097,18.78488,14.99683,18.45755,15.20428,18.2283z M24.31586,11.72312c-1.08154,0.22363-1.91602,1.06152-1.92432,1.07031   c-0.05859,0.05957-0.13623,0.08936-0.21387,0.08936c-0.07617,0-0.15186-0.02832-0.21045-0.08594   c-0.11816-0.11621-0.11963-0.30615-0.00342-0.42432c0.03906-0.03955,0.97217-0.97705,2.23096-1.2373   c0.16211-0.02783,0.3208,0.07031,0.35449,0.2334C24.58246,11.53073,24.47845,11.68942,24.31586,11.72312z M26.67426,19.09519   c-0.11475,0.76709-1.16309,1.21729-1.28223,1.26611c-0.25586,0.1333-0.5166,0.19971-0.77344,0.19971   c-0.56006,0-1.10498-0.31396-1.55469-0.92383c-0.11768-0.15967-0.16846-0.36279-0.13867-0.55713   c0.02832-0.1875,0.12695-0.35156,0.27734-0.46143c0.40277-0.29504,0.85779-0.5191,1.3429-0.6402   c0.4021-0.10046,0.82019-0.12799,1.23206-0.0816c0.19086,0.02148,0.35303,0.08148,0.49432,0.21582   c0.2088,0.19843,0.3858,0.47614,0.40979,0.76813C26.6875,18.95224,26.68481,19.02426,26.67426,19.09519z M15.82367,33.86862   c-0.04004,0.12842-0.15869,0.21094-0.28662,0.21094c-0.0293,0-0.05957-0.00439-0.08936-0.01367   c-0.1582-0.04932-0.24609-0.21777-0.19727-0.37598c0.14453-0.46289,0.28271-1.07471,0.25537-1.25635   c-0.0249-0.16357,0.0874-0.31641,0.25146-0.34131c0.15918-0.02783,0.31641,0.08691,0.34131,0.25146   C16.16107,32.75388,15.88031,33.686,15.82367,33.86862z M21.74731,22.54148c0.33453,0,0.60577,0.20044,0.60577,0.44788   c0,0.24731-0.27124,0.44781-0.60577,0.44781s-0.60565-0.2005-0.60565-0.44781   C21.14166,22.74191,21.41278,22.54148,21.74731,22.54148z M19.70319,22.54148c0.33453,0,0.60577,0.20044,0.60577,0.44788   c0,0.24731-0.27124,0.44781-0.60577,0.44781s-0.60565-0.2005-0.60565-0.44781   C19.09753,22.74191,19.36865,22.54148,19.70319,22.54148z M22.29926,30.74021c-0.06348,0.15381-0.23926,0.22314-0.39209,0.1626   c-1.22705-0.50781-2.69482-0.00049-2.70947,0.00537c-0.0332,0.01172-0.06689,0.01758-0.1001,0.01758   c-0.12354,0-0.23926-0.07715-0.28271-0.2002c-0.05518-0.15625,0.02637-0.32764,0.18262-0.38281   c0.06885-0.02344,1.70361-0.58838,3.13916,0.00537C22.28998,30.41159,22.36273,30.58737,22.29926,30.74021z M24.56439,28.52878   c-0.43115,0.33643-1.05518,0.46875-1.62988,0.46875c-0.26318,0-0.51562-0.02783-0.73486-0.07617   c-0.8042-0.17871-2.44775-0.30762-3.09131-0.09668c-0.80322,0.2627-1.77295,0.00684-2.41455-0.63916   c-0.70312-0.70605-0.0708-1.76416-0.04395-1.80908c0.52295-1.11865,2.61572-1.01074,3.10645-0.92383   c0.32422,0.05713,0.78516-0.15674,0.9209-0.23682c0.11475-0.06738,0.26025-0.05176,0.35693,0.03906   c0.16699,0.13232,1.15723,0.24805,2.12061,0.24805c0.45068,0,1.08252,0.1543,1.50439,0.58789   c0.32471,0.33398,0.48193,0.77393,0.4668,1.30762C25.11322,27.8613,24.91888,28.25192,24.56439,28.52878z M28.62982,31.45212   c-0.02051,0.00439-0.04102,0.00684-0.06152,0.00684c-0.13916,0-0.26367-0.09766-0.29297-0.23926l-0.27393-1.31494   c-0.03418-0.16211,0.07031-0.3208,0.23242-0.35449c0.16064-0.03174,0.3208,0.07031,0.35449,0.23242l0.27393,1.31494   C28.89642,31.25974,28.79193,31.41843,28.62982,31.45212z M31.27386,21.66452c-0.01807,0.22949-0.04102,0.47266-0.06396,0.72217   c-0.10107,1.08545-0.22607,2.43652,0.0415,2.94824c0.07666,0.14697,0.01953,0.32812-0.12695,0.40527   c-0.04443,0.02295-0.09229,0.03418-0.13867,0.03418c-0.1084,0-0.21289-0.05908-0.2666-0.16113   c-0.34912-0.66895-0.22607-1.99756-0.10693-3.28223c0.02295-0.24609,0.04541-0.48682,0.06299-0.71338   c0.09814-1.24463-0.56592-2.99902-0.57275-3.0166c-0.05908-0.15479,0.01855-0.32861,0.17285-0.3877   c0.15576-0.05908,0.32812,0.01855,0.3877,0.17285C30.69232,18.46335,31.38226,20.28366,31.27386,21.66452z" style="fill:#303030;"/></g></svg>