<svg width="150" height="103" viewBox="0 0 150 103" fill="none" xmlns="http://www.w3.org/2000/svg">
<path d="M10.512 37H6.624L1.116 11.8H5.004L8.928 31.06L14.616 11.8H18.216L23.904 31.06L27.828 11.8H31.572L26.064 37H22.176L16.344 17.2L10.512 37ZM59.7122 24.4C59.7122 26.2 59.3642 27.904 58.6682 29.512C57.9962 31.096 57.0722 32.476 55.8962 33.652C54.7202 34.804 53.3282 35.716 51.7202 36.388C50.1122 37.06 48.3962 37.396 46.5722 37.396C44.7482 37.396 43.0322 37.06 41.4242 36.388C39.8162 35.716 38.4242 34.804 37.2482 33.652C36.0962 32.476 35.1722 31.096 34.4762 29.512C33.8042 27.904 33.4682 26.2 33.4682 24.4C33.4682 22.6 33.8042 20.908 34.4762 19.324C35.1722 17.716 36.0962 16.336 37.2482 15.184C38.4242 14.008 39.8162 13.084 41.4242 12.412C43.0322 11.74 44.7482 11.404 46.5722 11.404C48.3962 11.404 50.1122 11.74 51.7202 12.412C53.3282 13.084 54.7202 14.008 55.8962 15.184C57.0722 16.336 57.9962 17.716 58.6682 19.324C59.3642 20.908 59.7122 22.6 59.7122 24.4ZM55.8602 24.4C55.8602 23.056 55.6202 21.808 55.1402 20.656C54.6602 19.48 54.0002 18.472 53.1602 17.632C52.3442 16.768 51.3602 16.096 50.2082 15.616C49.0802 15.136 47.8682 14.896 46.5722 14.896C45.2762 14.896 44.0642 15.136 42.9362 15.616C41.8082 16.096 40.8242 16.768 39.9842 17.632C39.1682 18.472 38.5202 19.48 38.0402 20.656C37.5602 21.808 37.3202 23.056 37.3202 24.4C37.3202 25.744 37.5602 27.004 38.0402 28.18C38.5202 29.332 39.1682 30.328 39.9842 31.168C40.8242 32.008 41.8082 32.68 42.9362 33.184C44.0642 33.664 45.2762 33.904 46.5722 33.904C47.8682 33.904 49.0802 33.664 50.2082 33.184C51.3602 32.68 52.3442 32.008 53.1602 31.168C54.0002 30.328 54.6602 29.332 55.1402 28.18C55.6202 27.004 55.8602 25.744 55.8602 24.4ZM88.9973 24.4C88.9973 26.2 88.6493 27.904 87.9533 29.512C87.2813 31.096 86.3573 32.476 85.1813 33.652C84.0053 34.804 82.6133 35.716 81.0053 36.388C79.3973 37.06 77.6813 37.396 75.8573 37.396C74.0333 37.396 72.3173 37.06 70.7093 36.388C69.1013 35.716 67.7093 34.804 66.5333 33.652C65.3813 32.476 64.4573 31.096 63.7613 29.512C63.0893 27.904 62.7533 26.2 62.7533 24.4C62.7533 22.6 63.0893 20.908 63.7613 19.324C64.4573 17.716 65.3813 16.336 66.5333 15.184C67.7093 14.008 69.1013 13.084 70.7093 12.412C72.3173 11.74 74.0333 11.404 75.8573 11.404C77.6813 11.404 79.3973 11.74 81.0053 12.412C82.6133 13.084 84.0053 14.008 85.1813 15.184C86.3573 16.336 87.2813 17.716 87.9533 19.324C88.6493 20.908 88.9973 22.6 88.9973 24.4ZM85.1453 24.4C85.1453 23.056 84.9053 21.808 84.4253 20.656C83.9453 19.48 83.2853 18.472 82.4453 17.632C81.6293 16.768 80.6453 16.096 79.4933 15.616C78.3653 15.136 77.1533 14.896 75.8573 14.896C74.5613 14.896 73.3493 15.136 72.2213 15.616C71.0933 16.096 70.1093 16.768 69.2693 17.632C68.4533 18.472 67.8053 19.48 67.3253 20.656C66.8453 21.808 66.6053 23.056 66.6053 24.4C66.6053 25.744 66.8453 27.004 67.3253 28.18C67.8053 29.332 68.4533 30.328 69.2693 31.168C70.1093 32.008 71.0933 32.68 72.2213 33.184C73.3493 33.664 74.5613 33.904 75.8573 33.904C77.1533 33.904 78.3653 33.664 79.4933 33.184C80.6453 32.68 81.6293 32.008 82.4453 31.168C83.2853 30.328 83.9453 29.332 84.4253 28.18C84.9053 27.004 85.1453 25.744 85.1453 24.4ZM93.013 37V11.8H96.793V23.536L108.997 11.8H113.749L100.753 23.968L114.181 37H108.997L96.793 25.012V37H93.013ZM116.427 37V11.8H120.207V37H116.427ZM125.357 37V11.8H143.933V15.112H129.137V22.672H138.857V25.912H129.137V33.688H144.077V37H125.357Z" fill="#0C2146"/>
<path d="M17.1283 77.7977L7.73232 59.0777V79.5977H4.20432V54.3977H9.24432L17.1643 70.4897L25.0483 54.3977H30.0883V79.5977H26.5243V59.0417L17.1283 77.7977ZM60.3761 66.9977C60.3761 68.7977 60.0281 70.5017 59.3321 72.1097C58.6601 73.6937 57.7361 75.0737 56.5601 76.2497C55.3841 77.4017 53.9921 78.3137 52.3841 78.9857C50.7761 79.6577 49.0601 79.9937 47.2361 79.9937C45.4121 79.9937 43.6961 79.6577 42.0881 78.9857C40.4801 78.3137 39.0881 77.4017 37.9121 76.2497C36.7601 75.0737 35.8361 73.6937 35.1401 72.1097C34.4681 70.5017 34.1321 68.7977 34.1321 66.9977C34.1321 65.1977 34.4681 63.5057 35.1401 61.9217C35.8361 60.3137 36.7601 58.9337 37.9121 57.7817C39.0881 56.6057 40.4801 55.6817 42.0881 55.0097C43.6961 54.3377 45.4121 54.0017 47.2361 54.0017C49.0601 54.0017 50.7761 54.3377 52.3841 55.0097C53.9921 55.6817 55.3841 56.6057 56.5601 57.7817C57.7361 58.9337 58.6601 60.3137 59.3321 61.9217C60.0281 63.5057 60.3761 65.1977 60.3761 66.9977ZM56.5241 66.9977C56.5241 65.6537 56.2841 64.4057 55.8041 63.2537C55.3241 62.0777 54.6641 61.0697 53.8241 60.2297C53.0081 59.3657 52.0241 58.6937 50.8721 58.2137C49.7441 57.7337 48.5321 57.4937 47.2361 57.4937C45.9401 57.4937 44.7281 57.7337 43.6001 58.2137C42.4721 58.6937 41.4881 59.3657 40.6481 60.2297C39.8321 61.0697 39.1841 62.0777 38.7041 63.2537C38.2241 64.4057 37.9841 65.6537 37.9841 66.9977C37.9841 68.3417 38.2241 69.6017 38.7041 70.7777C39.1841 71.9297 39.8321 72.9257 40.6481 73.7657C41.4881 74.6057 42.4721 75.2777 43.6001 75.7817C44.7281 76.2617 45.9401 76.5017 47.2361 76.5017C48.5321 76.5017 49.7441 76.2617 50.8721 75.7817C52.0241 75.2777 53.0081 74.6057 53.8241 73.7657C54.6641 72.9257 55.3241 71.9297 55.8041 70.7777C56.2841 69.6017 56.5241 68.3417 56.5241 66.9977ZM70.8319 79.5977L60.5359 54.3977H64.6039L73.1359 75.8537L81.8119 54.3977H85.6999L75.2599 79.5977H70.8319ZM88.2981 79.5977V54.3977H92.0781V79.5977H88.2981ZM97.2278 79.5977V54.3977H115.804V57.7097H101.008V65.2697H110.728V68.5097H101.008V76.2857H115.948V79.5977H97.2278ZM117.565 75.4217L119.869 72.7577C121.237 74.0777 122.629 75.0737 124.045 75.7457C125.485 76.3937 126.985 76.7177 128.545 76.7177C130.345 76.7177 131.809 76.3217 132.937 75.5297C134.089 74.7377 134.665 73.7297 134.665 72.5057C134.665 71.4017 134.269 70.5497 133.477 69.9497C132.685 69.3257 131.377 68.8577 129.553 68.5457L125.341 67.8617C123.037 67.4777 121.309 66.7457 120.157 65.6657C119.029 64.5617 118.465 63.1097 118.465 61.3097C118.465 59.1257 119.317 57.3737 121.021 56.0537C122.725 54.7337 124.969 54.0737 127.753 54.0737C129.553 54.0737 131.341 54.3737 133.117 54.9737C134.893 55.5497 136.489 56.3897 137.905 57.4937L135.817 60.3737C134.449 59.3417 133.081 58.5737 131.713 58.0697C130.345 57.5417 128.965 57.2777 127.573 57.2777C125.941 57.2777 124.621 57.6257 123.613 58.3217C122.605 59.0177 122.101 59.9177 122.101 61.0217C122.101 62.0537 122.449 62.8457 123.145 63.3977C123.841 63.9257 124.993 64.3217 126.601 64.5857L130.669 65.2337C133.309 65.6657 135.253 66.4577 136.501 67.6097C137.773 68.7377 138.409 70.2737 138.409 72.2177C138.409 73.3697 138.169 74.4257 137.689 75.3857C137.209 76.3457 136.525 77.1617 135.637 77.8337C134.773 78.5057 133.717 79.0337 132.469 79.4177C131.221 79.7777 129.853 79.9577 128.365 79.9577C126.349 79.9577 124.405 79.5617 122.533 78.7697C120.661 77.9777 119.005 76.8617 117.565 75.4217Z" fill="#0C2146"/>
</svg>
